<?xml version="1.0" standalone="no"?>
<!DOCTYPE svg PUBLIC "-//W3C//DTD SVG 20010904//EN"
 "http://www.w3.org/TR/2001/REC-SVG-20010904/DTD/svg10.dtd">
<svg version="1.0" xmlns="http://www.w3.org/2000/svg"
 width="680.000000pt" height="378.000000pt" viewBox="0 0 680.000000 378.000000"
 preserveAspectRatio="xMidYMid meet">

<g transform="translate(0.000000,378.000000) scale(0.100000,-0.100000)"
fill="#000000" stroke="none">
<path d="M3222 3689 c2 -6 -3 -14 -11 -17 -9 -3 -11 0 -6 8 5 9 4 11 -4 6 -6
-4 -9 -12 -6 -17 4 -5 2 -9 -4 -9 -5 0 -11 -6 -13 -14 -5 -22 -346 -374 -839
-866 -240 -239 -457 -462 -482 -496 -42 -56 -138 -231 -137 -251 1 -4 21 32
46 82 25 49 67 119 92 155 26 36 258 277 517 535 259 259 522 524 585 590 63
66 152 159 198 206 53 54 80 89 73 94 -6 3 -10 1 -9 -6z"/>
<path d="M3105 3608 c-33 -27 -78 -64 -100 -83 -22 -18 -82 -68 -134 -110 -51
-43 -101 -85 -111 -94 -9 -9 -74 -63 -145 -121 -70 -58 -149 -122 -174 -144
-53 -44 -58 -48 -171 -140 -85 -69 -132 -112 -100 -90 59 41 437 351 645 529
85 73 222 186 251 205 39 28 107 90 103 94 -2 2 -31 -18 -64 -46z"/>
<path d="M660 3230 c0 -6 7 -13 15 -16 8 -4 13 -10 10 -14 -5 -7 47 -134 125
-305 12 -27 76 -159 141 -292 145 -298 148 -307 170 -473 7 -62 8 -61 3 21 -5
109 -27 175 -126 379 -106 218 -181 375 -206 430 -57 127 -102 232 -102 238 0
4 16 -11 36 -33 l36 -40 -29 40 c-25 37 -61 75 -70 75 -1 0 -3 -5 -3 -10z"/>
<path d="M788 3080 c17 -25 43 -58 57 -75 16 -18 12 -8 -11 25 -20 30 -46 64
-57 75 -11 11 -6 0 11 -25z"/>
<path d="M1635 3051 c54 -9 64 -17 86 -65 13 -29 19 -35 19 -19 0 12 -15 38
-34 57 -28 30 -40 36 -72 35 l-39 -2 40 -6z"/>
<path d="M1573 3035 c1 -5 -6 -9 -15 -9 -10 1 -16 -2 -13 -6 7 -11 -30 -41
-40 -33 -4 5 -5 3 -1 -4 8 -15 -43 -95 -55 -87 -5 3 -6 -1 -3 -9 2 -7 0 -27
-7 -43 -19 -48 -38 -136 -39 -175 0 -47 25 -117 52 -146 38 -41 103 -26 162
36 16 17 32 28 36 26 4 -3 7 3 6 13 0 9 5 16 12 14 8 -1 11 2 7 9 -10 15 15
60 28 52 6 -3 7 -1 3 5 -5 9 18 119 27 129 8 8 -14 97 -27 112 -8 9 -26 39
-40 67 -23 45 -32 52 -61 56 -20 2 -33 0 -32 -7z"/>
<path d="M890 2940 c12 -16 24 -30 26 -30 3 0 -4 14 -16 30 -12 17 -24 30 -26
30 -3 0 4 -13 16 -30z"/>
<path d="M1743 2900 c0 -25 2 -35 4 -22 2 12 2 32 0 45 -2 12 -4 2 -4 -23z"/>
<path d="M920 2896 c0 -2 8 -10 18 -17 15 -13 16 -12 3 4 -13 16 -21 21 -21
13z"/>
<path d="M980 2816 c0 -2 8 -10 18 -17 15 -13 16 -12 3 4 -13 16 -21 21 -21
13z"/>
<path d="M2129 2803 c-13 -16 -12 -17 4 -4 9 7 17 15 17 17 0 8 -8 3 -21 -13z"/>
<path d="M1025 2761 c18 -30 133 -166 161 -191 15 -14 -3 11 -42 56 -38 44
-82 96 -99 115 -16 20 -26 28 -20 20z"/>
<path d="M4634 2766 c-197 -45 -340 -197 -352 -373 -12 -182 31 -221 329 -298
187 -49 198 -53 229 -92 39 -50 0 -137 -84 -181 -46 -24 -62 -26 -156 -27 -83
0 -112 4 -138 18 -43 23 -72 72 -72 120 l0 38 -112 -3 -113 -3 -3 -57 c-10
-186 116 -293 358 -305 181 -9 329 38 435 138 132 124 173 328 88 429 -39 47
-110 78 -282 122 -236 60 -270 80 -258 154 13 81 87 134 199 142 131 9 218
-42 218 -128 l0 -40 110 0 c110 0 110 0 116 26 10 40 -2 127 -24 171 -29 56
-89 107 -158 133 -75 29 -239 36 -330 16z"/>
<path d="M3075 2738 c-2 -7 -54 -251 -115 -543 -61 -291 -114 -538 -116 -547
-5 -16 5 -18 105 -18 61 0 111 3 111 8 0 4 37 182 82 395 69 327 84 384 93
365 6 -13 72 -191 146 -395 l134 -373 118 0 c64 0 117 3 117 6 0 4 52 250 115
549 63 298 115 547 115 554 0 7 -33 11 -104 11 -91 0 -105 -2 -110 -17 -2 -10
-21 -93 -40 -185 -20 -93 -52 -241 -71 -330 -19 -90 -37 -180 -41 -200 -3 -21
-9 -38 -13 -38 -3 0 -67 173 -142 383 l-136 382 -121 3 c-93 2 -123 0 -127
-10z"/>
<path d="M5601 2713 c-6 -21 -23 -103 -40 -183 -53 -260 -182 -865 -187 -882
-5 -16 5 -18 110 -18 100 0 115 2 120 18 6 20 96 447 96 456 0 3 111 7 247 8
l247 3 18 80 c9 44 18 83 18 88 0 4 -107 7 -238 7 -131 0 -241 2 -244 5 -3 3
7 63 21 133 l27 127 281 3 281 2 17 78 c9 42 19 85 21 95 5 16 -18 17 -390 17
l-395 0 -10 -37z"/>
<path d="M2764 2704 c-1 -13 2 -21 7 -18 11 6 12 31 2 37 -5 3 -9 -6 -9 -19z"/>
<path d="M2685 2701 c-66 -23 -95 -39 -95 -51 0 -6 -6 -10 -12 -10 -7 0 -26
-7 -42 -15 -16 -9 -36 -13 -43 -10 -8 2 -12 1 -9 -4 8 -13 -82 -64 -96 -55 -6
4 -8 3 -5 -3 4 -6 -13 -24 -37 -42 -47 -33 -62 -39 -50 -18 4 6 4 9 0 5 -4 -3
-6 -9 -4 -11 4 -7 -43 -57 -55 -57 -5 0 -3 8 4 18 13 15 12 16 -3 3 -10 -7
-16 -17 -13 -21 5 -8 -56 -56 -68 -52 -4 1 -6 -4 -5 -10 2 -7 -3 -12 -10 -10
-8 1 -11 -1 -9 -5 3 -5 -11 -26 -30 -48 -20 -22 -30 -31 -22 -20 13 18 13 19
-4 6 -9 -8 -15 -16 -13 -19 9 -8 -15 -43 -25 -37 -5 4 -9 3 -8 -2 4 -15 -13
-43 -22 -37 -5 3 -9 2 -8 -3 3 -20 -2 -34 -11 -28 -6 4 -10 3 -9 -2 3 -20 -2
-34 -11 -28 -6 4 -10 3 -9 -2 3 -20 -2 -34 -11 -28 -6 4 -7 -1 -3 -11 4 -12 3
-15 -6 -10 -6 4 -10 4 -9 -1 4 -16 -14 -53 -23 -48 -5 3 -6 -2 -2 -11 5 -13 3
-15 -7 -9 -8 5 -11 4 -7 -3 10 -15 -3 -43 -16 -35 -5 3 -7 1 -4 -4 9 -14 -17
-76 -27 -66 -4 4 -4 -1 0 -11 5 -13 4 -17 -4 -12 -8 5 -10 2 -6 -8 3 -9 1 -16
-5 -16 -6 0 -8 -7 -4 -17 4 -11 3 -14 -5 -9 -8 5 -10 2 -6 -8 3 -9 2 -16 -4
-16 -6 0 -8 -10 -4 -22 3 -13 1 -19 -5 -15 -7 5 -9 -1 -5 -15 3 -13 1 -19 -5
-15 -6 4 -8 -4 -5 -20 3 -16 1 -24 -5 -20 -6 4 -11 1 -10 -6 1 -39 -4 -67 -12
-63 -5 4 -7 -2 -4 -12 2 -10 -1 -31 -8 -47 -7 -17 -11 -40 -10 -52 1 -13 -1
-23 -6 -23 -4 0 -9 -30 -11 -68 -2 -37 -7 -68 -12 -70 -4 -2 -6 -21 -3 -42 3
-22 2 -40 -3 -40 -5 0 -9 -112 -9 -250 0 -137 4 -250 9 -250 5 0 6 -20 4 -45
-3 -24 -2 -45 2 -47 5 -2 11 -44 15 -94 7 -87 6 -92 -16 -114 -13 -13 -18 -19
-10 -15 9 5 12 4 7 -3 -16 -27 -45 -12 -57 28 -7 22 -14 38 -17 36 -5 -5 32
-129 60 -203 11 -29 18 -54 16 -55 -1 -2 20 -25 47 -53 28 -27 49 -53 47 -58
-1 -5 2 -6 7 -3 14 9 61 -15 54 -27 -3 -6 -2 -8 3 -4 5 3 36 0 69 -7 55 -11
64 -10 105 10 25 12 56 35 70 50 22 25 25 37 22 89 -2 32 -7 64 -11 70 -5 5
-11 27 -15 47 -4 20 -31 124 -61 230 -90 322 -112 470 -101 677 5 103 9 126
24 140 13 11 18 25 15 46 -6 40 27 176 40 168 6 -3 7 -1 3 6 -4 6 2 40 13 74
32 101 51 138 63 131 7 -5 8 -3 3 6 -9 14 44 132 56 124 4 -2 11 1 15 7 4 8 3
9 -4 5 -15 -9 -15 -1 -1 25 5 11 14 17 19 14 6 -4 7 1 3 11 -4 11 -3 15 5 10
6 -3 14 -1 18 5 4 8 3 9 -4 5 -26 -16 -10 17 55 117 25 37 49 65 53 62 5 -3
12 0 16 6 4 8 3 9 -4 5 -19 -12 -14 5 14 41 14 18 29 31 35 28 5 -3 7 0 4 7
-6 16 53 91 65 83 5 -3 12 0 16 6 4 8 3 9 -4 5 -7 -4 -12 -3 -12 2 0 12 35 43
42 37 3 -3 11 3 19 12 13 16 12 17 -3 4 -40 -31 -14 9 36 57 52 50 76 65 60
40 -4 -7 -3 -8 4 -4 6 4 9 12 6 19 -3 8 13 23 36 36 22 12 40 20 40 16 0 -3 6
-1 13 5 6 6 21 17 32 26 17 12 14 12 -13 -1 -18 -9 -36 -13 -41 -11 -5 3 -23
1 -40 -5 -57 -20 -43 -2 16 21 84 32 99 39 88 39 -5 0 -33 -8 -60 -18z m-575
-2415 c0 -7 -6 -19 -14 -25 -11 -9 -12 -6 -8 14 5 26 22 35 22 11z"/>
<path d="M1949 2663 c-13 -16 -12 -17 4 -4 9 7 17 15 17 17 0 8 -8 3 -21 -13z"/>
<path d="M1885 2614 l-30 -26 33 22 c17 12 32 23 32 26 0 7 -4 5 -35 -22z"/>
<path d="M667 2595 c3 -16 12 -36 21 -42 9 -7 12 -13 6 -13 -5 0 -5 -3 1 -8
17 -12 47 -102 61 -182 3 -19 8 -38 10 -42 3 -4 7 -26 10 -50 3 -24 7 -49 10
-57 25 -75 25 -441 1 -511 -3 -8 -8 -34 -11 -58 -3 -23 -10 -51 -16 -62 -6
-11 -8 -20 -5 -20 3 0 -1 -13 -10 -30 -9 -16 -13 -30 -9 -30 4 0 1 -6 -5 -13
-6 -8 -8 -17 -4 -20 3 -4 1 -7 -5 -7 -7 0 -11 -3 -10 -7 1 -5 -4 -19 -11 -31
-7 -13 -10 -26 -7 -30 4 -3 -3 -15 -15 -28 -11 -12 -21 -29 -23 -37 -1 -9 -9
-24 -18 -34 -8 -10 -28 -40 -44 -68 -15 -27 -32 -51 -36 -53 -4 -2 -8 -10 -8
-18 0 -8 -7 -17 -15 -20 -8 -4 -15 -12 -15 -20 0 -8 -5 -14 -10 -14 -6 0 -15
-11 -20 -25 -5 -14 -14 -25 -20 -25 -6 0 -8 -5 -5 -10 3 -6 -1 -13 -9 -16 -9
-3 -16 -12 -16 -19 0 -7 -7 -16 -16 -19 -8 -3 -13 -10 -10 -15 3 -5 -1 -12
-10 -15 -8 -3 -12 -10 -9 -16 3 -5 1 -10 -5 -10 -6 0 -8 -4 -5 -10 3 -5 1 -10
-5 -10 -6 0 -8 -4 -5 -10 3 -5 2 -10 -3 -10 -5 0 -9 -6 -10 -12 -13 -85 -13
-100 -4 -94 6 4 8 -2 5 -14 -6 -23 35 -83 69 -101 24 -13 141 -21 133 -10 -2
4 16 28 41 52 50 49 150 195 208 304 52 97 15 49 -69 -90 -54 -89 -74 -115
-87 -111 -10 2 -18 0 -18 -5 0 -5 5 -9 10 -9 6 0 10 -5 10 -11 0 -13 -42 -1
-52 15 -15 23 -8 71 12 84 18 11 20 10 21 -10 0 -22 1 -22 8 -3 5 11 4 25 -2
33 -7 9 -5 11 9 5 17 -6 18 -5 4 12 -12 15 -12 17 -1 10 11 -6 13 -4 8 9 -5
11 -3 15 5 10 7 -5 9 -2 5 9 -4 12 -2 14 11 10 15 -6 16 -5 2 12 -12 15 -12
17 -1 10 11 -6 13 -4 8 8 -4 12 -2 14 11 10 15 -6 16 -5 2 12 -12 15 -12 17
-1 10 11 -6 13 -4 8 8 -4 12 -2 14 11 10 15 -6 15 -5 3 10 -12 16 -12 17 5 10
17 -6 17 -5 5 10 -12 16 -12 17 5 10 17 -6 18 -5 4 12 -12 15 -12 17 -1 10 11
-6 13 -4 8 8 -4 10 -2 14 7 11 12 -5 15 1 19 50 1 13 6 22 11 19 14 -9 26 20
14 34 -8 11 -7 12 8 6 17 -6 17 -5 5 10 -8 10 -11 20 -7 24 3 3 6 1 6 -6 0 -7
5 -9 10 -6 8 5 7 12 -2 23 -7 9 -8 13 -2 9 15 -9 39 47 28 65 -4 7 -4 10 1 6
4 -4 14 0 21 10 9 13 10 20 1 31 -7 9 -8 12 -1 8 14 -8 55 88 42 101 -5 5 -4
18 2 33 10 24 10 23 5 -3 -3 -17 -1 -28 5 -28 6 0 9 4 6 8 -2 4 -1 14 4 22 5
9 5 19 -2 27 -6 8 -8 16 -4 20 3 3 6 1 6 -5 0 -7 5 -12 12 -12 6 0 8 3 5 6 -3
4 -2 15 3 25 7 12 7 20 0 24 -5 3 -10 14 -9 23 0 14 2 13 9 -3 5 -11 9 -14 11
-7 2 16 6 31 8 35 2 1 5 13 8 27 7 39 11 55 13 55 3 0 15 68 27 145 13 81 9
302 -6 355 -32 114 -84 203 -156 267 -45 41 -145 90 -171 85 -13 -2 -26 1 -28
7 -3 6 -3 -2 1 -19z m118 -34 c70 -36 146 -117 182 -192 38 -77 63 -194 63
-286 -1 -91 -46 -382 -62 -399 -8 -8 -1 123 12 204 7 50 10 130 8 205 -8 196
-54 305 -168 395 -30 24 -73 59 -95 78 -34 30 -36 34 -15 28 14 -3 48 -18 75
-33z m115 -1098 c-11 -17 -11 -17 -6 0 3 10 6 24 7 30 0 9 2 9 5 0 3 -7 0 -20
-6 -30z m-129 -310 c-12 -20 -14 -14 -5 12 4 9 9 14 11 11 3 -2 0 -13 -6 -23z
m-387 -419 c3 -8 2 -12 -4 -9 -6 3 -10 10 -10 16 0 14 7 11 14 -7z m31 -44
c10 -11 16 -20 13 -20 -3 0 -13 9 -23 20 -10 11 -16 20 -13 20 3 0 13 -9 23
-20z"/>
<path d="M1815 2564 l-30 -26 33 22 c17 12 32 23 32 26 0 7 -4 5 -35 -22z"/>
<path d="M1220 2536 c0 -2 8 -10 18 -17 15 -13 16 -12 3 4 -13 16 -21 21 -21
13z"/>
<path d="M1420 2526 c0 -2 8 -10 18 -17 15 -13 16 -12 3 4 -13 16 -21 21 -21
13z"/>
<path d="M1295 2462 c17 -19 39 -38 50 -44 21 -11 0 10 -55 56 -19 16 -18 13
5 -12z"/>
<path d="M1585 2420 c-3 -6 1 -7 9 -4 18 7 21 14 7 14 -6 0 -13 -4 -16 -10z"/>
<path d="M1545 2400 c-3 -6 1 -7 9 -4 18 7 21 14 7 14 -6 0 -13 -4 -16 -10z"/>
<path d="M1470 2380 c-34 -7 -34 -7 -5 -8 17 0 39 3 50 8 24 10 4 10 -45 0z"/>
<path d="M1122 1989 c-1 -26 -4 -62 -7 -80 -5 -31 -5 -32 5 -9 6 13 9 49 7 80
-3 53 -3 54 -5 9z"/>
<path d="M1706 2005 c-9 -26 -7 -32 5 -12 6 10 9 21 6 23 -2 3 -7 -2 -11 -11z"/>
<path d="M1676 1925 c-3 -9 -6 -22 -5 -28 0 -7 5 -1 10 12 5 13 8 26 5 28 -2
2 -6 -3 -10 -12z"/>
<path d="M1652 1845 c-21 -76 -22 -100 -2 -40 11 33 18 65 16 70 -2 6 -8 -8
-14 -30z"/>
<path d="M1109 1869 c0 -2 -2 -16 -4 -31 -2 -16 -7 -38 -10 -49 -5 -14 -3 -19
3 -15 12 7 27 85 18 93 -3 4 -6 4 -7 2z"/>
<path d="M1083 1723 c-6 -21 -10 -40 -8 -42 7 -6 26 51 23 66 -2 8 -8 -3 -15
-24z"/>
<path d="M535 1731 c5 -13 4 -13 -6 -4 -20 20 -54 -14 -36 -35 7 -10 8 -13 1
-9 -17 10 -38 -47 -29 -80 7 -26 8 -27 16 -8 6 14 7 10 3 -14 -5 -27 -3 -32 7
-25 10 6 10 3 -1 -11 -14 -17 -13 -18 2 -12 10 3 20 1 24 -5 4 -7 3 -8 -4 -4
-20 12 -13 -13 10 -36 16 -16 20 -17 15 -5 -6 15 -3 16 13 7 11 -6 20 -13 20
-16 0 -3 -6 -2 -12 2 -9 6 -9 3 0 -9 11 -13 17 -14 33 -4 14 9 24 9 37 1 15
-10 23 -7 47 16 34 30 37 38 41 95 l3 40 -8 -38 c-11 -53 -17 -54 -29 -5 -16
62 -45 103 -94 135 -33 21 -39 28 -25 31 46 10 106 -33 133 -93 7 -16 13 -23
14 -15 0 26 -38 79 -72 100 -41 25 -112 25 -103 1z m-48 -83 c-3 -8 -6 -5 -6
6 -1 11 2 17 5 13 3 -3 4 -12 1 -19z m193 -152 c0 -2 -8 -10 -17 -17 -16 -13
-17 -12 -4 4 13 16 21 21 21 13z"/>
<path d="M1616 1699 c-4 -23 -5 -44 -2 -46 2 -2 7 14 11 37 4 23 5 43 2 46 -2
3 -7 -14 -11 -37z"/>
<path d="M1062 1641 c-6 -17 -7 -31 -3 -31 10 0 25 50 18 57 -3 2 -9 -10 -15
-26z"/>
<path d="M1602 1615 c0 -16 2 -22 5 -12 2 9 2 23 0 30 -3 6 -5 -1 -5 -18z"/>
<path d="M1041 1574 c-6 -15 -10 -29 -7 -31 2 -3 -4 -25 -14 -49 -11 -24 -15
-44 -10 -44 4 0 18 32 30 71 22 71 23 101 1 53z"/>
<path d="M1585 1510 c-4 -39 -5 -73 -2 -76 3 -3 8 27 12 66 4 39 5 73 2 76 -3
3 -8 -27 -12 -66z"/>
<path d="M2218 1513 c-16 -2 -28 -9 -28 -15 0 -6 9 -7 23 -3 12 4 44 10 70 12
107 11 217 -74 177 -137 -7 -12 -12 -7 -25 23 -25 59 -65 79 -152 74 -40 -2
-73 -1 -73 2 0 3 -10 12 -22 20 -13 7 -20 10 -15 6 10 -11 -72 -57 -86 -48 -7
3 -9 2 -4 -2 10 -11 -33 -56 -46 -48 -6 3 -7 1 -3 -5 4 -6 2 -21 -4 -32 -16
-30 -30 -111 -17 -103 6 4 8 -2 5 -15 -4 -12 -3 -20 2 -17 9 6 42 -29 34 -37
-3 -3 3 -5 13 -5 10 1 17 -3 16 -9 -1 -7 31 -10 100 -10 84 2 109 6 144 24 48
25 57 27 47 10 -4 -7 -3 -8 5 -4 6 4 9 11 7 15 -8 12 59 73 69 64 4 -5 5 -3 1
4 -6 12 12 63 23 63 11 0 4 66 -9 91 -39 74 -124 101 -252 82z"/>
<path d="M598 1448 c9 -9 15 -9 24 0 9 9 7 12 -12 12 -19 0 -21 -3 -12 -12z"/>
<path d="M993 1417 c-6 -12 -15 -33 -21 -47 -5 -14 -17 -41 -26 -62 -9 -20
-16 -39 -16 -42 0 -3 -20 -46 -44 -96 -25 -49 -41 -90 -37 -90 15 0 168 347
158 357 -2 2 -8 -7 -14 -20z"/>
<path d="M1572 1374 c-1 -28 -4 -93 -7 -145 -4 -81 -3 -87 6 -46 5 27 8 92 6
145 -1 53 -4 74 -5 46z"/>
<path d="M1960 1345 c0 -38 2 -66 4 -64 8 7 10 118 3 126 -4 3 -7 -24 -7 -62z"/>
<path d="M1245 1320 c-3 -5 -1 -10 4 -10 6 0 11 5 11 10 0 6 -2 10 -4 10 -3 0
-8 -4 -11 -10z"/>
<path d="M1181 1215 c-148 -242 -373 -479 -512 -540 -19 -8 -27 -14 -19 -15
50 -1 218 133 324 258 111 130 275 366 263 378 -2 2 -27 -34 -56 -81z"/>
<path d="M1254 1274 c3 -11 8 -39 11 -64 3 -25 10 -58 15 -75 9 -28 9 -27 5
10 -11 101 -18 136 -27 141 -6 4 -8 -1 -4 -12z"/>
<path d="M2429 1243 c-13 -16 -12 -17 4 -4 16 13 21 21 13 21 -2 0 -10 -8 -17
-17z"/>
<path d="M1963 1110 c0 -30 2 -43 4 -27 2 15 2 39 0 55 -2 15 -4 2 -4 -28z"/>
<path d="M1567 1025 c3 -60 7 -112 9 -114 8 -9 2 185 -6 204 -5 11 -6 -27 -3
-90z"/>
<path d="M1284 1085 c6 -20 63 -235 71 -267 4 -20 24 -56 25 -46 0 4 -7 29
-15 55 -29 91 -34 108 -51 183 -9 41 -21 80 -27 85 -6 7 -7 3 -3 -10z"/>
<path d="M1971 1020 c-1 -48 57 -316 67 -306 2 3 -4 35 -14 73 -9 37 -25 113
-34 168 -10 56 -18 85 -19 65z"/>
<path d="M1582 830 c0 -19 3 -55 7 -80 8 -42 9 -42 9 -10 0 19 -3 55 -7 80 -8
42 -9 42 -9 10z"/>
<path d="M1381 758 c-4 -38 119 -299 176 -375 38 -52 132 -151 165 -175 l28
-19 -9 23 c-5 13 -15 22 -22 20 -31 -8 -166 160 -228 285 -36 72 -62 129 -81
178 -18 47 -29 69 -29 63z"/>
<path d="M1602 670 c0 -19 2 -27 5 -17 2 9 2 25 0 35 -3 9 -5 1 -5 -18z"/>
<path d="M2040 685 c0 -8 4 -15 10 -15 5 0 7 7 4 15 -4 8 -8 15 -10 15 -2 0
-4 -7 -4 -15z"/>
<path d="M595 650 c-13 -6 -15 -9 -5 -9 8 0 22 4 30 9 18 12 2 12 -25 0z"/>
<path d="M1612 615 c0 -11 4 -31 8 -45 6 -20 8 -21 8 -5 0 11 -4 31 -8 45 -6
20 -8 21 -8 5z"/>
<path d="M2064 610 c6 -38 44 -157 45 -140 1 8 -10 49 -24 90 -14 41 -23 64
-21 50z"/>
<path d="M2111 434 c0 -11 3 -14 6 -6 3 7 2 16 -1 19 -3 4 -6 -2 -5 -13z"/>
<path d="M2120 375 c0 -14 4 -25 9 -25 4 0 6 11 3 25 -2 14 -6 25 -8 25 -2 0
-4 -11 -4 -25z"/>
</g>
</svg>
